<svg width="48" height="48" viewBox="0 0 48 48" fill="none" xmlns="http://www.w3.org/2000/svg">
<rect width="48" height="48" rx="24" fill="white" fill-opacity="0.1"/>
<path d="M25.2723 17.2729C25.2723 16.141 23.9032 15.5742 23.1034 16.3749L19.2908 20.1874H17.654C16.6873 20.1874 15.6901 20.75 15.4003 21.8014C15.2037 22.5177 15.1046 23.2572 15.1055 24C15.1055 24.7608 15.208 25.4979 15.402 26.1986C15.6909 27.2492 16.6881 27.8126 17.6548 27.8126H19.29L23.1025 31.6251C23.9032 32.4258 25.2723 31.859 25.2723 30.7271V17.2729ZM28.8985 21.6447C28.8403 21.5823 28.7702 21.5322 28.6922 21.4974C28.6143 21.4627 28.5301 21.444 28.4448 21.4425C28.3595 21.441 28.2748 21.4567 28.1956 21.4887C28.1165 21.5206 28.0446 21.5682 27.9843 21.6286C27.924 21.6889 27.8764 21.7608 27.8444 21.8399C27.8125 21.919 27.7968 22.0038 27.7983 22.0891C27.7998 22.1744 27.8185 22.2585 27.8532 22.3365C27.8879 22.4144 27.938 22.4846 28.0004 22.5428L29.4577 24L28.0004 25.4572C27.938 25.5154 27.8879 25.5856 27.8532 25.6635C27.8185 25.7415 27.7998 25.8256 27.7983 25.9109C27.7968 25.9962 27.8125 26.081 27.8444 26.1601C27.8764 26.2392 27.924 26.3111 27.9843 26.3714C28.0446 26.4318 28.1165 26.4794 28.1956 26.5113C28.2748 26.5433 28.3595 26.559 28.4448 26.5575C28.5301 26.556 28.6143 26.5373 28.6922 26.5026C28.7702 26.4678 28.8403 26.4177 28.8985 26.3553L30.3557 24.8981L31.813 26.3553C31.8712 26.4177 31.9413 26.4678 32.0193 26.5026C32.0972 26.5373 32.1813 26.556 32.2667 26.5575C32.352 26.559 32.4367 26.5433 32.5159 26.5113C32.595 26.4794 32.6669 26.4318 32.7272 26.3714C32.7875 26.3111 32.8351 26.2392 32.8671 26.1601C32.899 26.081 32.9147 25.9962 32.9132 25.9109C32.9117 25.8256 32.893 25.7415 32.8583 25.6635C32.8236 25.5856 32.7735 25.5154 32.7111 25.4572L31.2538 24L32.7111 22.5428C32.7735 22.4846 32.8236 22.4144 32.8583 22.3365C32.893 22.2585 32.9117 22.1744 32.9132 22.0891C32.9147 22.0038 32.899 21.919 32.8671 21.8399C32.8351 21.7608 32.7875 21.6889 32.7272 21.6286C32.6669 21.5682 32.595 21.5206 32.5159 21.4887C32.4367 21.4567 32.352 21.441 32.2667 21.4425C32.1813 21.444 32.0972 21.4627 32.0193 21.4974C31.9413 21.5322 31.8712 21.5823 31.813 21.6447L30.3557 23.1019L28.8985 21.6447Z" fill="white"/>
</svg>
